<svg width="199" height="60" viewBox="0 0 199 60" fill="none" xmlns="http://www.w3.org/2000/svg">
<g clip-path="url(#clip0)">
<path d="M58.6606 27.9809C58.6606 29.4357 58.129 30.5758 57.0589 31.4081C55.9958 32.2334 54.6319 32.6531 52.9743 32.6531C51.6663 32.6531 50.3934 32.2963 49.1694 31.5689C48.5609 31.1983 48.0643 30.6667 47.6796 29.9813C47.288 29.2958 47.0991 28.5125 47.0991 27.6382L49.8199 27.5123C49.8199 28.2887 50.1486 28.8972 50.8131 29.3238C51.4775 29.7574 52.2119 29.9743 53.0162 29.9743C54.8137 29.9743 55.716 29.3378 55.716 28.0718C55.716 27.0367 55.1005 26.4212 53.8765 26.2324L51.3726 25.9736C50.1206 25.7847 49.1274 25.3371 48.3931 24.6307C47.6587 23.9243 47.288 22.9101 47.288 21.5812C47.288 20.2523 47.8125 19.1612 48.8687 18.2939C49.9178 17.4266 51.2467 17 52.8554 17C54.464 17 55.758 17.4057 56.7372 18.224C57.7163 19.0353 58.2059 20.0844 58.2059 21.3714L55.5272 21.5043C55.2824 20.2523 54.4361 19.6228 52.9952 19.6228C52.114 19.6228 51.4285 19.8117 50.932 20.1824C50.4354 20.5601 50.1836 21.0007 50.1836 21.5113C50.1836 22.0218 50.3654 22.4275 50.7221 22.7213C51.0788 23.015 51.5265 23.2039 52.065 23.2738L54.527 23.5326C57.2897 23.9033 58.6606 25.3861 58.6606 27.9809Z" fill="#009EDF"/>
<path d="M72.7329 32.5201H67.2844C65.5569 32.5201 64.3399 32.2193 63.6404 31.6248C62.941 31.0303 62.5913 29.9742 62.5913 28.4564V17.1328H72.7259V19.8116H65.5918V23.4206H70.5857L70.3689 26.0994H65.5918V28.2396C65.5918 28.8481 65.7317 29.2608 66.0045 29.4916C66.2773 29.7224 66.7738 29.8343 67.4943 29.8343H72.7259V32.5201H72.7329Z" fill="#009EDF"/>
<path d="M88.8755 32.5201H85.7421L84.8748 29.8623H79.7061L78.8668 32.5201H75.7334L80.6573 18.4267C80.8741 17.9371 81.1119 17.6014 81.3847 17.4126C81.6505 17.2237 81.9792 17.1328 82.3709 17.1328C82.7626 17.1328 83.0703 17.2167 83.3081 17.3916C83.5459 17.5665 83.7558 17.9092 83.9446 18.4267L88.8755 32.5201ZM84.1824 27.3374L82.3639 21.2454L80.4615 27.3374H84.1824Z" fill="#009EDF"/>
<path d="M103.892 23.3367L101.129 29.1699C100.724 29.9462 100.227 30.3379 99.6255 30.3379C99.024 30.3379 98.5274 29.9252 98.1218 29.1069L95.3101 23.3367V32.5201H92.3096V17.1328H95.2681L99.6115 26.0155L103.934 17.1328H106.893V32.5201H103.892V23.3367Z" fill="#231F20"/>
<path d="M122.868 24.1131V25.2811C122.868 27.862 122.385 29.7365 121.413 30.8975C120.441 32.0655 118.881 32.6461 116.734 32.6461C114.586 32.6461 113.034 32.0655 112.076 30.8975C111.117 29.7295 110.635 27.834 110.635 25.2112V24.0851C110.635 21.6931 111.124 19.9166 112.097 18.7486C113.069 17.5805 114.607 17 116.72 17C118.832 17 120.385 17.5945 121.378 18.7695C122.371 19.9586 122.868 21.7351 122.868 24.1131ZM119.867 25.2182V24.4209C119.867 23.036 119.692 21.9379 119.35 21.1126C118.944 20.1614 118.084 19.6858 116.755 19.6858C115.412 19.6858 114.545 20.1614 114.139 21.1126C113.81 21.889 113.642 22.994 113.642 24.4209V25.2182C113.642 27.0787 113.901 28.3306 114.419 28.9811C114.621 29.2539 114.922 29.4917 115.314 29.6805C115.713 29.8763 116.188 29.9743 116.741 29.9743C117.293 29.9743 117.769 29.8833 118.154 29.6945C118.545 29.5057 118.846 29.2748 119.063 29.0021C119.28 28.7293 119.447 28.3656 119.559 27.925C119.762 27.2116 119.867 26.3093 119.867 25.2182Z" fill="#231F20"/>
<path d="M139.031 17.1328V30.9604C139.031 31.436 138.884 31.8416 138.597 32.1844C138.311 32.5201 137.968 32.6949 137.583 32.6949C136.59 32.6949 135.772 32.1214 135.142 30.9674L129.827 22.6443V32.5201H126.826V17.1328H129.722L136.031 27.2045V17.1328H139.031Z" fill="#231F20"/>
<path d="M150.621 24.3718L155.915 32.5201H152.411L148.781 26.7079L146.683 29.5196V32.5201H143.675V17.1328H146.683V25.7357L152.495 17.1328H155.523L150.621 24.3718Z" fill="#231F20"/>
<path d="M169.722 32.5201H164.273C162.546 32.5201 161.329 32.2193 160.629 31.6248C159.93 31.0303 159.58 29.9742 159.58 28.4564V17.1328H169.715V19.8116H162.581V23.4206H167.574L167.358 26.0994H162.581V28.2396C162.581 28.8481 162.72 29.2608 162.993 29.4916C163.266 29.7224 163.763 29.8343 164.483 29.8343H169.715V32.5201H169.722Z" fill="#231F20"/>
<path d="M184.696 17.1328L180.073 26.2113V32.5201H177.093V26.2113L172.47 17.1328H175.737L178.611 23.3367L181.444 17.1328H184.696Z" fill="#231F20"/>
<path d="M198.461 27.9809C198.461 29.4357 197.929 30.5758 196.859 31.4081C195.789 32.2334 194.432 32.6531 192.775 32.6531C191.46 32.6531 190.194 32.2963 188.97 31.5689C188.361 31.1983 187.865 30.6667 187.48 29.9813C187.088 29.2958 186.899 28.5125 186.899 27.6382L189.62 27.5123C189.62 28.2887 189.949 28.8972 190.613 29.3238C191.278 29.7574 192.012 29.9743 192.817 29.9743C194.614 29.9743 195.516 29.3378 195.516 28.0718C195.516 27.0367 194.901 26.4212 193.677 26.2324L191.173 25.9736C189.921 25.7847 188.928 25.3371 188.193 24.6307C187.459 23.9243 187.088 22.9101 187.088 21.5812C187.088 20.2523 187.613 19.1612 188.669 18.2939C189.718 17.4266 191.047 17 192.656 17C194.264 17 195.551 17.4057 196.537 18.224C197.517 19.0353 198.006 20.0844 198.006 21.3714L195.327 21.5043C195.083 20.2523 194.236 19.6228 192.796 19.6228C191.914 19.6228 191.229 19.8117 190.732 20.1824C190.236 20.5601 189.984 21.0007 189.984 21.5113C189.984 22.0218 190.166 22.4275 190.522 22.7213C190.879 23.015 191.327 23.2039 191.865 23.2738L194.327 23.5326C197.09 23.9033 198.461 25.3861 198.461 27.9809Z" fill="#231F20"/>
<path d="M53.6699 49.3613H51.1259C50.1659 49.3613 49.4699 49.1773 49.0379 48.8093C48.6139 48.4333 48.4019 47.8253 48.4019 46.9853V40.8173H50.0699V46.9853C50.0699 47.3213 50.1459 47.5533 50.2979 47.6813C50.4499 47.8093 50.7259 47.8733 51.1259 47.8733H53.6699V49.3613ZM59.9875 46.2653V45.6413C59.9875 45.0493 59.8995 44.5973 59.7235 44.2853C59.5555 43.9733 59.1995 43.8173 58.6555 43.8173C57.7755 43.8173 57.3355 44.4093 57.3355 45.5933V46.2173C57.3355 47.4893 57.7755 48.1253 58.6555 48.1253C59.2235 48.1253 59.5955 47.9133 59.7715 47.4893C59.9155 47.1533 59.9875 46.7453 59.9875 46.2653ZM61.5475 45.9053C61.5475 47.3853 61.2675 48.3773 60.7075 48.8813C60.2355 49.3133 59.5515 49.5293 58.6555 49.5293C57.5115 49.5293 56.7395 49.1933 56.3395 48.5213C55.9635 47.9053 55.7755 47.0333 55.7755 45.9053C55.7755 44.8493 55.9635 44.0213 56.3395 43.4213C56.7555 42.7493 57.5115 42.4133 58.6075 42.4133C59.7115 42.4133 60.4755 42.7093 60.8995 43.3013C61.3315 43.8853 61.5475 44.7533 61.5475 45.9053ZM67.6991 46.8533L69.1151 46.8413C69.1071 46.9053 69.0991 47.0213 69.0911 47.1893C69.0831 47.3573 69.0751 47.4733 69.0671 47.5373C69.0671 47.5933 69.0591 47.6853 69.0431 47.8133C69.0271 47.9413 69.0071 48.0373 68.9831 48.1013C68.9671 48.1573 68.9431 48.2333 68.9111 48.3293C68.7671 48.7453 68.3751 49.0733 67.7351 49.3133C67.3271 49.4573 66.8991 49.5293 66.4511 49.5293C66.0111 49.5293 65.6111 49.4573 65.2511 49.3133C64.8911 49.1693 64.6071 48.9853 64.3991 48.7613C63.9271 48.2653 63.6911 47.3373 63.6911 45.9773C63.6911 44.6093 63.9271 43.6773 64.3991 43.1813C64.6071 42.9573 64.8911 42.7733 65.2511 42.6293C65.6111 42.4853 66.0111 42.4133 66.4511 42.4133C67.3151 42.4133 67.9711 42.6293 68.4191 43.0613C68.8671 43.4933 69.0911 44.0933 69.0911 44.8613H67.6751C67.6751 44.5093 67.5871 44.2493 67.4111 44.0813C67.2351 43.9053 66.9071 43.8173 66.4271 43.8173C65.9551 43.8173 65.6391 43.9653 65.4791 44.2613C65.3271 44.5573 65.2511 45.0013 65.2511 45.5933V46.2173C65.2511 47.1693 65.4351 47.7533 65.8031 47.9693C65.9711 48.0733 66.1911 48.1253 66.4631 48.1253C66.7351 48.1253 66.9551 48.1013 67.1231 48.0533C67.2991 47.9973 67.4231 47.9053 67.4951 47.7773C67.5751 47.6493 67.6271 47.5253 67.6511 47.4053C67.6751 47.2773 67.6911 47.0933 67.6991 46.8533ZM76.5338 49.3613H75.4898L75.0098 48.5333L73.3418 49.4333C72.4138 49.4333 71.7898 49.0973 71.4698 48.4253C71.3098 48.0973 71.1978 47.7453 71.1338 47.3693C71.0778 46.9853 71.0498 46.5893 71.0498 46.1813C71.0498 45.7653 71.0538 45.4613 71.0618 45.2693C71.0698 45.0693 71.0898 44.8413 71.1218 44.5853C71.1538 44.3213 71.1978 44.1013 71.2538 43.9253C71.3178 43.7493 71.4058 43.5693 71.5178 43.3853C71.6298 43.1933 71.7658 43.0413 71.9258 42.9293C72.2858 42.6813 72.7538 42.5573 73.3298 42.5573H74.9738L76.5338 42.4613V49.3613ZM74.9738 47.1773V43.9613H73.7858C73.3458 43.9613 73.0378 44.1293 72.8618 44.4653C72.6938 44.8013 72.6098 45.3053 72.6098 45.9773C72.6098 46.6413 72.6898 47.1093 72.8498 47.3813C73.0178 47.6533 73.3298 47.7893 73.7858 47.7893L74.9738 47.1773ZM81.128 49.3613L79.568 49.3733V40.3373H81.128V49.3613ZM84.9957 39.8933C85.3717 39.8933 85.6157 39.9533 85.7277 40.0733C85.8397 40.1853 85.8957 40.4293 85.8957 40.8053C85.8957 41.1733 85.8357 41.4173 85.7157 41.5373C85.6037 41.6493 85.3597 41.7053 84.9837 41.7053C84.6157 41.7053 84.3717 41.6453 84.2517 41.5253C84.1397 41.4053 84.0837 41.1613 84.0837 40.7933C84.0837 40.4253 84.1397 40.1853 84.2517 40.0733C84.3717 39.9533 84.6197 39.8933 84.9957 39.8933ZM85.7637 49.3613H84.2037V42.7613H85.7637V49.3613ZM93.2404 49.3613H89.5084C89.1004 49.3613 88.7844 49.2773 88.5604 49.1093C88.3444 48.9333 88.2364 48.6893 88.2364 48.3773C88.2364 48.0653 88.3684 47.7373 88.6324 47.3933L91.4884 43.8533H88.6324V42.5093H93.3604V43.6973L89.9524 48.0173H93.2404V49.3613ZM100.755 49.3613H99.7109L99.2309 48.5333L97.5629 49.4333C96.6349 49.4333 96.0109 49.0973 95.6909 48.4253C95.5309 48.0973 95.4189 47.7453 95.3549 47.3693C95.2989 46.9853 95.2709 46.5893 95.2709 46.1813C95.2709 45.7653 95.2749 45.4613 95.2829 45.2693C95.2909 45.0693 95.3109 44.8413 95.3429 44.5853C95.3749 44.3213 95.4189 44.1013 95.4749 43.9253C95.5389 43.7493 95.6269 43.5693 95.7389 43.3853C95.8509 43.1933 95.9869 43.0413 96.1469 42.9293C96.5069 42.6813 96.9749 42.5573 97.5509 42.5573H99.1949L100.755 42.4613V49.3613ZM99.1949 47.1773V43.9613H98.0069C97.5669 43.9613 97.2589 44.1293 97.0829 44.4653C96.9149 44.8013 96.8309 45.3053 96.8309 45.9773C96.8309 46.6413 96.9109 47.1093 97.0709 47.3813C97.2389 47.6533 97.5509 47.7893 98.0069 47.7893L99.1949 47.1773ZM106.777 49.3613H105.805C105.213 49.3613 104.761 49.1853 104.449 48.8333C104.145 48.4813 103.993 48.0613 103.993 47.5733V43.9733H103.333V42.7853H103.993V41.4413H105.553V42.7853H106.657V43.9733H105.553V47.4773C105.553 47.8533 105.733 48.0413 106.093 48.0413H106.777V49.3613ZM110.26 39.8933C110.636 39.8933 110.88 39.9533 110.992 40.0733C111.104 40.1853 111.16 40.4293 111.16 40.8053C111.16 41.1733 111.1 41.4173 110.98 41.5373C110.868 41.6493 110.624 41.7053 110.248 41.7053C109.88 41.7053 109.636 41.6453 109.516 41.5253C109.404 41.4053 109.348 41.1613 109.348 40.7933C109.348 40.4253 109.404 40.1853 109.516 40.0733C109.636 39.9533 109.884 39.8933 110.26 39.8933ZM111.028 49.3613H109.468V42.7613H111.028V49.3613ZM117.88 46.2653V45.6413C117.88 45.0493 117.792 44.5973 117.616 44.2853C117.448 43.9733 117.092 43.8173 116.548 43.8173C115.668 43.8173 115.228 44.4093 115.228 45.5933V46.2173C115.228 47.4893 115.668 48.1253 116.548 48.1253C117.116 48.1253 117.488 47.9133 117.664 47.4893C117.808 47.1533 117.88 46.7453 117.88 46.2653ZM119.44 45.9053C119.44 47.3853 119.16 48.3773 118.6 48.8813C118.128 49.3133 117.444 49.5293 116.548 49.5293C115.404 49.5293 114.632 49.1933 114.232 48.5213C113.856 47.9053 113.668 47.0333 113.668 45.9053C113.668 44.8493 113.856 44.0213 114.232 43.4213C114.648 42.7493 115.404 42.4133 116.5 42.4133C117.604 42.4133 118.368 42.7093 118.792 43.3013C119.224 43.8853 119.44 44.7533 119.44 45.9053ZM127.404 49.3613H125.844V44.9813C125.844 44.5893 125.764 44.3213 125.604 44.1773C125.444 44.0333 125.22 43.9613 124.932 43.9613L123.528 44.5493V49.3613H121.968V42.5093H123.132L123.492 43.3253L125.412 42.4373C125.948 42.4373 126.412 42.6373 126.804 43.0373C127.204 43.4293 127.404 44.0053 127.404 44.7653V49.3613Z" fill="#231F20"/>
<path d="M141.156 49.3613H139.416L138.936 47.8853H136.068L135.6 49.3613H133.86L136.596 41.5373C136.716 41.2653 136.848 41.0773 136.992 40.9733C137.144 40.8693 137.328 40.8173 137.544 40.8173C137.76 40.8173 137.932 40.8653 138.06 40.9613C138.196 41.0573 138.316 41.2493 138.42 41.5373L141.156 49.3613ZM138.552 46.4813L137.544 43.0973L136.488 46.4813H138.552ZM146.968 42.5573L148.528 42.4613V49.0493C148.528 49.8093 148.312 50.3893 147.88 50.7893C147.456 51.1973 146.824 51.4013 145.984 51.4013C145.336 51.4013 144.768 51.2733 144.28 51.0173C144.024 50.8893 143.82 50.6973 143.668 50.4413C143.516 50.1853 143.44 49.8813 143.44 49.5293L144.892 49.4573C144.892 49.6813 144.972 49.8413 145.132 49.9373C145.292 50.0333 145.564 50.0813 145.948 50.0813C146.34 50.0813 146.604 49.9853 146.74 49.7933C146.884 49.6013 146.956 49.3253 146.956 48.9653L147.016 47.9333L145.336 48.8333C144.416 48.8333 143.796 48.5213 143.476 47.8973C143.188 47.3453 143.044 46.6693 143.044 45.8693C143.044 44.9173 143.116 44.2453 143.26 43.8533C143.412 43.4213 143.628 43.1093 143.908 42.9173C144.268 42.6773 144.74 42.5573 145.324 42.5573H146.968ZM146.968 46.5773V43.9613H145.78C145.332 43.9613 145.024 44.1133 144.856 44.4173C144.688 44.7213 144.604 45.1453 144.604 45.6893C144.604 46.2333 144.688 46.6213 144.856 46.8533C145.032 47.0773 145.34 47.1893 145.78 47.1893L146.968 46.5773ZM156.801 46.3013H152.805C152.805 46.9253 152.901 47.3813 153.093 47.6693C153.293 47.9573 153.689 48.1013 154.281 48.1013C154.665 48.1013 154.949 47.9813 155.133 47.7413C155.317 47.4933 155.409 47.2573 155.409 47.0333H156.813C156.813 47.8893 156.581 48.5173 156.117 48.9173C155.661 49.3173 155.053 49.5173 154.293 49.5173C153.541 49.5173 152.957 49.4093 152.541 49.1933C151.685 48.7533 151.257 47.5853 151.257 45.6893C151.257 44.5613 151.501 43.7373 151.989 43.2173C152.477 42.6893 153.221 42.4253 154.221 42.4253C155.957 42.4253 156.825 43.3893 156.825 45.3173C156.825 45.5253 156.817 45.8533 156.801 46.3013ZM152.841 45.2333H155.409C155.409 44.7053 155.309 44.3213 155.109 44.0813C154.909 43.8413 154.601 43.7213 154.185 43.7213C153.777 43.7213 153.449 43.8453 153.201 44.0933C152.961 44.3333 152.841 44.7133 152.841 45.2333ZM164.955 49.3613H163.395V44.9813C163.395 44.5893 163.315 44.3213 163.155 44.1773C162.995 44.0333 162.771 43.9613 162.483 43.9613L161.079 44.5493V49.3613H159.519V42.5093H160.683L161.043 43.3253L162.963 42.4373C163.499 42.4373 163.963 42.6373 164.355 43.0373C164.755 43.4293 164.955 44.0053 164.955 44.7653V49.3613ZM171.422 46.8533L172.838 46.8413C172.83 46.9053 172.822 47.0213 172.814 47.1893C172.806 47.3573 172.798 47.4733 172.79 47.5373C172.79 47.5933 172.782 47.6853 172.766 47.8133C172.75 47.9413 172.73 48.0373 172.706 48.1013C172.69 48.1573 172.666 48.2333 172.634 48.3293C172.49 48.7453 172.098 49.0733 171.458 49.3133C171.05 49.4573 170.622 49.5293 170.174 49.5293C169.734 49.5293 169.334 49.4573 168.974 49.3133C168.614 49.1693 168.33 48.9853 168.122 48.7613C167.65 48.2653 167.414 47.3373 167.414 45.9773C167.414 44.6093 167.65 43.6773 168.122 43.1813C168.33 42.9573 168.614 42.7733 168.974 42.6293C169.334 42.4853 169.734 42.4133 170.174 42.4133C171.038 42.4133 171.694 42.6293 172.142 43.0613C172.59 43.4933 172.814 44.0933 172.814 44.8613H171.398C171.398 44.5093 171.31 44.2493 171.134 44.0813C170.958 43.9053 170.63 43.8173 170.15 43.8173C169.678 43.8173 169.362 43.9653 169.202 44.2613C169.05 44.5573 168.974 45.0013 168.974 45.5933V46.2173C168.974 47.1693 169.158 47.7533 169.526 47.9693C169.694 48.0733 169.914 48.1253 170.186 48.1253C170.458 48.1253 170.678 48.1013 170.846 48.0533C171.022 47.9973 171.146 47.9053 171.218 47.7773C171.298 47.6493 171.35 47.5253 171.374 47.4053C171.398 47.2773 171.414 47.0933 171.422 46.8533ZM180.544 42.5093L177.94 50.1293C177.82 50.4733 177.664 50.7413 177.472 50.9333C177.152 51.2533 176.704 51.4133 176.128 51.4133H175.396V50.0093H175.876C176.1 50.0093 176.264 49.9693 176.368 49.8893C176.48 49.8173 176.576 49.6693 176.656 49.4453L176.776 49.1093L174.712 42.5093H176.356L177.58 47.2733L178.9 42.5093H180.544Z" fill="#009EDF"/>
<path d="M27.1793 55.4787C21.528 55.4787 16.9537 50.8975 16.9537 45.2532C16.9537 39.8467 21.1503 35.4263 26.4589 35.0556C26.4659 35.0556 26.4729 35.0486 26.4729 35.0486C25.8714 34.559 24.4236 34.0135 22.8848 33.9296C21.5629 33.8596 19.9822 34.0135 18.4295 34.657C13.7854 36.5874 12.2886 43.3368 7.08491 46.3443C7.06392 46.3583 7.04294 46.3723 7.01496 46.3863C6.95901 46.4212 6.90306 46.4562 6.84011 46.4842C6.68624 46.5681 6.52537 46.652 6.35751 46.729C6.34352 46.736 6.32953 46.743 6.31554 46.75C6.30155 46.7569 6.28757 46.7569 6.28057 46.7639C5.38531 47.1626 4.39214 47.3934 3.35 47.3934C3.12618 47.3934 2.90936 47.3794 2.69254 47.3654C2.69254 47.3654 2.69254 47.3654 2.68555 47.3654C5.16849 54.2827 11.785 59.2276 19.5556 59.2276C24.2977 59.2276 28.6061 57.3812 31.8164 54.3736C31.8234 54.3667 31.8234 54.3667 31.8304 54.3597C30.4386 55.0731 28.8579 55.4787 27.1793 55.4787Z" fill="#009EDF"/>
<path d="M35.9985 42.2252C35.2362 44.834 33.3617 46.9533 31.2425 48.1563C30.1094 48.8977 28.7595 49.3383 27.3047 49.3383C23.346 49.3383 20.1357 46.128 20.1357 42.1692C20.1357 38.4973 22.8914 35.4758 26.4514 35.0561C21.1358 35.4268 16.9463 39.8472 16.9463 45.2537C16.9463 50.905 21.5275 55.4792 27.1718 55.4792C28.8504 55.4792 30.4311 55.0736 31.83 54.3531C32.0468 54.1503 32.2566 53.9405 32.4595 53.7307C32.4664 53.7237 32.4664 53.7237 32.4734 53.7167C32.6693 53.5069 32.8651 53.297 33.054 53.0802C33.061 53.0662 33.0749 53.0592 33.0819 53.0452C33.2638 52.8354 33.4386 52.6186 33.6135 52.4018C33.6275 52.3808 33.6415 52.3668 33.6555 52.3458C33.8233 52.136 33.9842 51.9192 34.1381 51.7023C34.159 51.6744 34.18 51.6464 34.194 51.6184C34.3409 51.4086 34.4878 51.1918 34.6277 50.9749C34.6486 50.94 34.6766 50.905 34.6976 50.863C34.8305 50.6532 34.9564 50.4364 35.0823 50.2266C35.1103 50.1776 35.1382 50.1356 35.1592 50.0867C35.2781 49.8769 35.39 49.667 35.5019 49.4572C35.5299 49.4012 35.5579 49.3453 35.5859 49.2893C35.6908 49.0865 35.7887 48.8767 35.8796 48.6669C35.9076 48.6039 35.9426 48.534 35.9706 48.471C36.0615 48.2682 36.1454 48.0654 36.2223 47.8555C36.2503 47.7786 36.2853 47.7086 36.3133 47.6317C36.3902 47.4289 36.4601 47.233 36.5301 47.0302C36.5581 46.9463 36.586 46.8624 36.614 46.7714C36.677 46.5756 36.7329 46.3728 36.7889 46.1769C36.8168 46.086 36.8448 45.9881 36.8658 45.8972C36.9148 45.7013 36.9637 45.5055 37.0057 45.3096C37.0267 45.2047 37.0547 45.1068 37.0756 45.0089C37.1176 44.813 37.1526 44.6172 37.1875 44.4214C37.2085 44.3165 37.2295 44.2115 37.2435 44.0996C37.2715 43.9038 37.2995 43.701 37.3204 43.5051C37.3344 43.4002 37.3484 43.2883 37.3624 43.1834C37.3834 42.9666 37.3974 42.7567 37.4114 42.5399C37.4184 42.442 37.4253 42.3511 37.4323 42.2532C37.4463 41.9384 37.4603 41.6307 37.4603 41.3089C37.4603 41.0222 37.4533 40.7424 37.4393 40.4626C37.4393 40.4207 37.4393 40.3857 37.4323 40.3437C37.4184 40.078 37.3974 39.8192 37.3694 39.5534C37.3624 39.5044 37.3624 39.4485 37.3554 39.3995C37.3274 39.1407 37.2995 38.8889 37.2575 38.6372C37.2505 38.5882 37.2435 38.5392 37.2365 38.4903C37.1945 38.2315 37.1526 37.9797 37.0966 37.7209C37.0896 37.6929 37.0826 37.658 37.0756 37.63C37.0267 37.3922 36.9707 37.1614 36.9148 36.9306C36.9008 36.8816 36.8938 36.8327 36.8798 36.7837C36.8168 36.5529 36.7539 36.3151 36.684 36.0843C36.663 36.0213 36.642 35.9584 36.621 35.8884C36.5511 35.6646 36.4741 35.4478 36.3972 35.224C36.3762 35.154 36.3482 35.0911 36.3203 35.0211C36.2363 34.8043 36.1524 34.5875 36.0615 34.3707C36.0405 34.3147 36.0125 34.2588 35.9915 34.2028C35.9076 34.014 35.8237 33.8321 35.7397 33.6433C35.7118 33.5873 35.6908 33.5384 35.6628 33.4824C36.1874 34.5665 37.1526 38.2665 35.9985 42.2252Z" fill="white"/>
<path d="M11.61 42C10.365 43.6716 8.96619 45.2523 7.07775 46.3434C7.05677 46.3574 7.03579 46.3714 7.00781 46.3854C6.95186 46.4203 6.89591 46.4553 6.83296 46.4833C6.67908 46.5672 6.51822 46.6511 6.35036 46.7281C6.33637 46.7351 6.32238 46.7421 6.30839 46.7491C6.30839 46.7561 6.2944 46.7561 6.28741 46.7631C5.39215 47.1617 4.39897 47.3925 3.35683 47.3925C3.13302 47.3925 2.9162 47.3786 2.69938 47.3646C2.69938 47.3646 2.69938 47.3646 2.69238 47.3646C5.17533 54.2748 11.7919 59.2197 19.5624 59.2197C12.5123 56.8837 8.37868 48.9872 11.61 42Z" fill="#2A5099"/>
<path d="M35.1042 6.84733C33.1388 6.2808 31.0266 7.06416 29.3759 8.74277C27.5924 6.6445 25.1374 5.12676 22.3537 4.51127C22.7174 3.42017 23.6616 2.6648 24.7527 2.50393C23.5358 2.28011 22.3397 2.63682 21.4515 3.3852C21.7732 1.83248 22.8643 0.566531 24.3121 0C21.6893 0.118902 19.4931 1.85347 18.6958 4.2315C15.1147 4.4693 11.9393 6.1689 9.75715 8.73577C8.10651 7.05716 5.99426 6.27381 4.02889 6.84034C0.769584 7.79155 -0.839085 12.128 0.440856 16.5273C1.64386 20.6679 4.97311 23.3886 8.07854 22.906C8.65206 24.0391 9.39345 25.0743 10.2607 25.9835C5.09201 29.1309 1.64386 34.8102 1.64386 41.3008C1.64386 43.4271 2.01455 45.4624 2.69299 47.3578C2.69299 47.3578 2.69299 47.3578 2.69999 47.3578C2.91681 47.3788 3.13363 47.3858 3.35744 47.3858C4.39958 47.3858 5.39276 47.162 6.28802 46.7563C6.30201 46.7493 6.316 46.7493 6.32299 46.7423C6.33698 46.7353 6.35097 46.7283 6.36496 46.7213C6.52582 46.6444 6.68669 46.5675 6.84756 46.4765C6.90351 46.4416 6.95946 46.4136 7.02241 46.3786C7.04339 46.3646 7.06438 46.3507 7.09235 46.3367C7.30218 46.2178 7.50501 46.0849 7.70785 45.952C7.7568 45.917 7.81276 45.882 7.86172 45.8471C8.03657 45.7282 8.20443 45.6023 8.3723 45.4694C8.39328 45.4554 8.41426 45.4344 8.43524 45.4204C8.62409 45.2735 8.80594 45.1197 8.98079 44.9658C9.02276 44.9308 9.05773 44.8959 9.09969 44.8609C9.25357 44.721 9.40744 44.5811 9.55432 44.4342C9.5753 44.4133 9.60328 44.3923 9.62426 44.3643C9.79912 44.1894 9.95998 44.0146 10.1278 43.8397C10.1488 43.8187 10.1698 43.7908 10.1908 43.7698C10.3447 43.6019 10.4915 43.4341 10.6314 43.2592C10.6454 43.2382 10.6594 43.2242 10.6804 43.2033C11.0091 42.8116 11.3239 42.4059 11.6316 41.9933C13.8068 39.0697 15.4924 35.8803 18.451 34.6493C20.0037 34.0059 21.5844 33.852 22.9063 33.9219C24.452 34.0059 25.8998 34.5514 26.4943 35.041C26.4943 35.041 26.4873 35.041 26.4803 35.048C22.9273 35.4677 20.1645 38.4962 20.1645 42.1611C20.1645 46.1198 23.3749 49.3302 27.3336 49.3302C28.7884 49.3302 30.1383 48.8965 31.2714 48.1482C33.3906 46.9452 35.272 44.8259 36.0274 42.2171C37.1745 38.2653 36.2163 34.5654 35.7197 33.4813C34.2089 30.3689 31.8239 27.767 28.8863 25.9765C29.7606 25.0673 30.495 24.0321 31.0755 22.8991C34.1809 23.3887 37.5102 20.6609 38.7132 16.5203C39.9652 12.128 38.3635 7.79155 35.1042 6.84733Z" fill="#231F20"/>
</g>
<defs>
<clipPath id="clip0">
<rect width="198.46" height="59.2269" fill="white" transform="translate(0.000976562)"/>
</clipPath>
</defs>
</svg>
