<svg xmlns="http://www.w3.org/2000/svg" height="32" width="32" viewBox="0 0 32 32"><g stroke-linecap="square" stroke-width="2" fill="none" stroke="#ffffff" stroke-linejoin="miter" class="nc-icon-wrapper" stroke-miterlimit="10"><line data-cap="butt" x1="26" y1="9" x2="17" y2="9" stroke-linecap="butt" stroke="#ffffff"></line> <polyline points=" 23,6 26,9 23,12 " stroke="#ffffff"></polyline> <line data-cap="butt" x1="4" y1="9" x2="13" y2="9" stroke-linecap="butt" stroke="#ffffff"></line> <polyline points=" 7,6 4,9 7,12 " stroke="#ffffff"></polyline> <line x1="13" y1="16.99999" x2="13" y2="19.99999"></line> <path d="M25.12761,15.47774 L17,13.99999V6c0-1.10457-0.89543-2-2-2h0c-1.10457,0-2,0.89543-2,2v8.39831v2.60168h-2c-1.10457,0-2,0.89543-2,2v2.89532 c0,1.36246,0.4637,2.68436,1.31483,3.74826L13,29h13l1.55607-10.11448C27.80318,17.27935,26.72647,15.76844,25.12761,15.47774z"></path></g></svg>